<svg id="Capa_1" enable-background="new 0 0 512 512" height="512" viewBox="0 0 512 512" width="512" xmlns="http://www.w3.org/2000/svg"><g><path d="m217.874 411.324c0-42.062 34.098-76.161 76.161-76.161 12.49 0 24.267 3.026 34.668 8.355v-48.21c0-3.015 2.444-5.459 5.46-5.459h138.672v-188.813c0-2.761-2.239-5-5-5h-129.396v41.406c0 2.761-2.239 5-5 5h-186.543c-2.761 0-5-2.239-5-5v-41.406h-129.396c-2.761 0-5 2.239-5 5v315.389c0 2.761 2.239 5 5 5h206.061c-.438-3.308-.687-6.675-.687-10.101z" fill="#f6a96c"/><path d="m57 416.424v-22.298h-19.202c-1.657 0-3-1.343-3-3v-264.793c0-1.657 1.343-3 3-3h19.202v-22.298c0-2.761 2.239-5 5-5h-49.5c-2.761 0-5 2.239-5 5v315.389c0 2.761 2.239 5 5 5h49.5c-2.761 0-5-2.239-5-5z" fill="#ea9b58"/><path d="m442.537 123.333h-104.098v14.108c0 2.761-2.239 5-5 5h-186.543c-2.761 0-5-2.239-5-5v-14.108h-104.098c-1.657 0-3 1.343-3 3v264.793c0 1.657 1.343 3 3 3h182.05c7.8-33.775 38.042-58.963 74.187-58.963 12.49 0 24.267 3.026 34.668 8.355v-48.21c0-3.015 2.444-5.459 5.46-5.459h111.374v-163.516c0-1.657-1.343-3-3-3z" fill="#fff"/><g><path d="m66 391.126v-264.793c0-1.657 1.343-3 3-3h-31.202c-1.657 0-3 1.343-3 3v264.793c0 1.657 1.343 3 3 3h31.202c-1.657 0-3-1.343-3-3z" fill="#f2fbff"/></g><path d="m300.13 81.295c-1.702-31.644-27.895-56.779-59.963-56.779-32.068 0-58.261 25.135-59.963 56.779z" fill="#fea613"/><path d="m222.099 81.295c1.312-24.372 17.147-44.88 39.012-53.019-6.522-2.427-13.576-3.76-20.944-3.76-32.068 0-58.261 25.135-59.963 56.779z" fill="#fe9901"/><g><path d="m333.439 142.442h-186.543c-2.761 0-5-2.239-5-5v-51.147c0-2.761 2.239-5 5-5h186.543c2.761 0 5 2.239 5 5v51.147c0 2.761-2.239 5-5 5z" fill="#faea5e"/></g><g><path d="m183.457 137.442v-51.147c0-2.761 2.239-5 5-5h-41.561c-2.761 0-5 2.239-5 5v51.147c0 2.761 2.239 5 5 5h41.561c-2.762 0-5-2.239-5-5z" fill="#ffd600"/></g><g><g><circle cx="82.933" cy="195.727" fill="#fd4755" r="19.108"/></g><g><path d="m80 195.727c0-7.658 4.516-14.245 11.021-17.294-2.459-1.152-5.193-1.815-8.088-1.815-10.553 0-19.108 8.555-19.108 19.108s8.555 19.108 19.108 19.108c2.895 0 5.629-.662 8.088-1.815-6.505-3.047-11.021-9.634-11.021-17.292z" fill="#fb2b3a"/></g><g><circle cx="167.01" cy="195.727" fill="#01c0fa" r="13.649"/></g><g><circle cx="251.086" cy="195.727" fill="#80d261" r="13.649"/></g><g><circle cx="397.402" cy="195.727" fill="#fd4755" r="19.108"/></g><g><path d="m394.783 195.727c0-7.596 4.444-14.138 10.864-17.218-2.499-1.199-5.288-1.89-8.245-1.89-10.553 0-19.108 8.555-19.108 19.108s8.555 19.108 19.108 19.108c2.957 0 5.746-.691 8.245-1.89-6.42-3.081-10.864-9.622-10.864-17.218z" fill="#fb2b3a"/></g></g><g><path d="m499.04 289.849h-164.878c-3.015 0-5.46 2.444-5.46 5.459v49.361c24.037 12.553 40.492 37.711 40.492 66.655 0 21.346-8.96 40.627-23.298 54.323h153.144c3.015 0 5.46-2.444 5.46-5.459v-164.879c0-3.016-2.444-5.46-5.46-5.46z" fill="#faea5e"/><g><path d="m336.203 339.098c3.558 2.075 6.979 4.401 10.208 6.998 10.251 8.247 18.396 18.838 23.793 30.702v-79.448h-34v41.748z" fill="#ffd600"/></g><g><path d="m393.406 289.849v45.557c0 1.809 1.467 3.276 3.276 3.276h39.839c1.809 0 3.276-1.467 3.276-3.276v-45.557z" fill="#fd4755"/></g><g><path d="m414 335.406v-45.557h-20.594v45.557c0 1.809 1.467 3.276 3.276 3.276h20.594c-1.809 0-3.276-1.467-3.276-3.276z" fill="#fb2b3a"/></g></g><g><g><circle cx="294.035" cy="411.324" fill="#99e6fc" r="76.161"/></g><g><path d="m259.679 411.324c0-34.81 23.363-64.145 55.258-73.232-6.644-1.893-13.651-2.928-20.902-2.928-42.062 0-76.161 34.098-76.161 76.161s34.098 76.161 76.161 76.161c7.252 0 14.258-1.035 20.902-2.928-31.895-9.089-55.258-38.424-55.258-73.234z" fill="#62dbfb"/></g></g><g><path d="m181.113 246.316h-113.558c-4.142 0-7.5 3.358-7.5 7.5s3.358 7.5 7.5 7.5h113.559c4.142 0 7.5-3.358 7.5-7.5s-3.359-7.5-7.501-7.5z"/><path d="m181.113 282.349h-113.558c-4.142 0-7.5 3.358-7.5 7.5s3.358 7.5 7.5 7.5h113.559c4.142 0 7.5-3.358 7.5-7.5s-3.359-7.5-7.501-7.5z"/><path d="m181.113 318.382h-113.558c-4.142 0-7.5 3.358-7.5 7.5s3.358 7.5 7.5 7.5h113.559c4.142 0 7.5-3.358 7.5-7.5s-3.359-7.5-7.501-7.5z"/><path d="m216.054 246.316c-4.142 0-7.5 3.358-7.5 7.5s3.358 7.5 7.5 7.5h67.698c4.142 0 7.5-3.358 7.5-7.5s-3.358-7.5-7.5-7.5z"/><path d="m416.51 246.316h-98.909c-4.142 0-7.5 3.358-7.5 7.5s3.358 7.5 7.5 7.5h98.909c4.142 0 7.5-3.358 7.5-7.5s-3.358-7.5-7.5-7.5z"/><path d="m291.252 289.849c0-4.142-3.358-7.5-7.5-7.5h-67.698c-4.142 0-7.5 3.358-7.5 7.5s3.358 7.5 7.5 7.5h67.698c4.143 0 7.5-3.358 7.5-7.5z"/><path d="m82.933 222.335c12.068 0 22.278-8.078 25.525-19.108h38.802c3.036 7.965 10.732 13.649 19.749 13.649 9.018 0 16.714-5.684 19.75-13.649h44.577c3.036 7.965 10.732 13.649 19.75 13.649s16.714-5.684 19.75-13.649h101.041c3.247 11.031 13.457 19.108 25.525 19.108 14.672 0 26.608-11.937 26.608-26.608s-11.937-26.608-26.608-26.608c-12.068 0-22.278 8.078-25.525 19.108h-101.041c-3.036-7.965-10.732-13.649-19.75-13.649s-16.714 5.684-19.75 13.649h-44.577c-3.036-7.965-10.732-13.649-19.75-13.649s-16.714 5.684-19.749 13.649h-38.802c-3.247-11.031-13.457-19.108-25.525-19.108-14.672 0-26.608 11.937-26.608 26.608s11.936 26.608 26.608 26.608zm314.469-38.217c6.401 0 11.608 5.208 11.608 11.608s-5.208 11.608-11.608 11.608-11.608-5.208-11.608-11.608 5.207-11.608 11.608-11.608zm-146.316 5.46c3.391 0 6.149 2.758 6.149 6.149s-2.758 6.149-6.149 6.149-6.149-2.758-6.149-6.149 2.759-6.149 6.149-6.149zm-84.077 0c3.391 0 6.149 2.758 6.149 6.149s-2.758 6.149-6.149 6.149c-3.39 0-6.148-2.758-6.148-6.149s2.758-6.149 6.148-6.149zm-84.076-5.46c6.401 0 11.608 5.208 11.608 11.608s-5.208 11.608-11.608 11.608-11.608-5.208-11.608-11.608 5.207-11.608 11.608-11.608z"/><path d="m440.221 411.051c0 4.142 3.358 7.5 7.5 7.5h27.298c4.142 0 7.5-3.358 7.5-7.5s-3.358-7.5-7.5-7.5h-27.298c-4.142 0-7.5 3.358-7.5 7.5z"/><path d="m475.019 428.665h-27.298c-4.142 0-7.5 3.358-7.5 7.5s3.358 7.5 7.5 7.5h27.298c4.142 0 7.5-3.358 7.5-7.5s-3.358-7.5-7.5-7.5z"/><path d="m499.041 282.349h-18.706v-60.349c0-4.142-3.358-7.5-7.5-7.5s-7.5 3.358-7.5 7.5v60.349h-12.297v-156.016c0-5.79-4.71-10.5-10.5-10.5h-96.598v-12.297h119.396v83.464c0 4.142 3.358 7.5 7.5 7.5s7.5-3.358 7.5-7.5v-85.964c0-6.893-5.607-12.5-12.5-12.5h-121.897v-2.241c0-6.893-5.607-12.5-12.5-12.5h-26.596c-5.177-32.144-33.094-56.779-66.675-56.779s-61.499 24.635-66.676 56.779h-26.596c-6.893 0-12.5 5.607-12.5 12.5v2.241h-121.896c-6.893 0-12.5 5.607-12.5 12.5v315.388c0 6.893 5.607 12.5 12.5 12.5h199.753c8.107 37.706 41.689 66.061 81.782 66.061 21.588 0 41.489-8.14 56.474-21.838h148.532c7.146 0 12.959-5.814 12.959-12.96v-164.878c0-7.146-5.813-12.96-12.959-12.96zm-258.874-250.333c25.286 0 46.451 17.952 51.436 41.779h-102.872c4.985-23.827 26.15-41.779 51.436-41.779zm-90.771 56.779h181.543v46.146h-181.543zm-16.396 297.831c-4.142 0-7.5 3.358-7.5 7.5s3.358 7.5 7.5 7.5h77.954c-.369 3.184-.58 6.416-.58 9.697 0 .872.039 1.734.066 2.6h-195.44v-310.387h119.396v12.297h-96.598c-5.79 0-10.5 4.71-10.5 10.5v264.793c0 5.79 4.71 10.5 10.5 10.5h60.202c4.142 0 7.5-3.358 7.5-7.5s-3.358-7.5-7.5-7.5h-55.702v-255.793h92.098v6.608c0 6.893 5.607 12.5 12.5 12.5h186.543c6.893 0 12.5-5.607 12.5-12.5v-6.608h92.098v151.516h-103.874c-7.146 0-12.96 5.813-12.96 12.959v36.915c-8.695-2.987-17.882-4.561-27.168-4.561-37.537 0-69.376 24.851-79.937 58.963h-81.098zm299.297-89.277v33.833h-31.391v-33.833zm64.703 160.797h-133.58c5.477-8.151 9.6-17.374 11.987-27.412.958-4.03-1.532-8.073-5.562-9.031-4.031-.959-8.073 1.531-9.031 5.562-7.381 31.04-34.842 52.719-66.78 52.719-37.859 0-68.661-30.801-68.661-68.661s30.801-68.661 68.661-68.661c32.095 0 59.585 21.81 66.853 53.037.938 4.033 4.967 6.544 9.005 5.604 4.034-.939 6.543-4.97 5.604-9.005-4.21-18.093-14.541-34.502-29.087-46.204-3.229-2.597-6.649-4.923-10.208-6.998v-41.749h49.703v38.057c0 5.942 4.834 10.776 10.776 10.776h39.839c5.942 0 10.776-4.834 10.776-10.776v-38.057h49.705z"/><path d="m338.103 403.824h-36.568v-45.189c0-4.142-3.358-7.5-7.5-7.5s-7.5 3.358-7.5 7.5v52.689c0 4.142 3.358 7.5 7.5 7.5h44.068c4.142 0 7.5-3.358 7.5-7.5s-3.358-7.5-7.5-7.5z"/></g></g></svg>