<svg id="Capa_1" enable-background="new 0 0 512 512" height="512" viewBox="0 0 512 512" width="512" xmlns="http://www.w3.org/2000/svg"><g><g><path d="m205.516 54.347-161.027 104.628v177.917h21.029c1.103 0 2 .897 2 2v58.88h59.018c1.103 0 2 .897 2 2v57.88h29.117v-262.694l132.135-85.855z" fill="#01c0fa"/><g><path d="m92.472 175.155 149.486-97.13-36.442-23.678-161.027 104.628v176.917h21.029c1.657 0 3 1.343 3 3v57.88h23.954z" fill="#08a9f1"/></g></g><g><g><path d="m157.653 194.958v262.694h320.225c2.761 0 5-2.239 5-5v-257.694l-162.612-105.658z" fill="#faea5e"/></g><path d="m320.266 89.3-162.613 105.658v262.694h32.372v-146.375c0-1.657 1.343-3 3-3h3.974v-84.477c0-5.078 2.569-9.811 6.827-12.578l152.041-98.789z" fill="#ffd600"/></g><g><g><g><path d="m443.966 335.407h-247.62l-6.321 1v121.245h260.481v-121.245z" fill="#9facba"/></g><g><path d="m190.025 364.537h41.974v93.116h-41.974z" fill="#8d9ca8"/></g><g><g><path d="m450.506 336.407h-260.481v-25.13c0-1.657 1.343-3 3-3h254.481c1.657 0 3 1.343 3 3z" fill="#01c0fa"/></g></g><g><path d="m234.999 308.277h-41.974c-1.657 0-3 1.343-3 3v25.13h41.974v-25.13c0-1.657 1.343-3 3-3z" fill="#08a9f1"/></g><g><g><path d="m190.025 336.407h260.481v28.13h-260.481z" fill="#01c0fa"/></g></g><g><path d="m190.025 336.407h41.974v28.13h-41.974z" fill="#08a9f1"/></g></g></g><g><g><path d="m68.518 457.652h-58.018c-1.657 0-3-1.343-3-3v-57.88h61.018z" fill="#ea9b58"/></g><g><path d="m28 454.652v-57.88h-20.5v57.88c0 1.657 1.343 3 3 3h20.5c-1.657 0-3-1.343-3-3z" fill="#d88a55"/></g><g><path d="m129.536 457.652h-61.018v-60.88h58.018c1.657 0 3 1.343 3 3z" fill="#ea9b58"/></g><g><path d="m68.518 396.772h20.482v60.88h-20.482z" fill="#d88a55"/></g><g><path d="m68.518 396.772h-61.018v-57.88c0-1.657 1.343-3 3-3h55.018c1.657 0 3 1.343 3 3z" fill="#f6a96c"/></g><g><path d="m31 335.892h-20.5c-1.657 0-3 1.343-3 3v57.88h20.5v-57.88c0-1.656 1.343-3 3-3z" fill="#ea9b58"/></g></g><g><g><path d="m257.808 254.172h-64.783c-1.657 0-3-1.343-3-3v-19.638c0-1.657 1.343-3 3-3h64.783c1.657 0 3 1.343 3 3v19.638c0 1.657-1.343 3-3 3z" fill="#9facba"/></g><g><path d="m352.657 254.172h-64.783c-1.657 0-3-1.343-3-3v-19.638c0-1.657 1.343-3 3-3h64.783c1.657 0 3 1.343 3 3v19.638c0 1.657-1.343 3-3 3z" fill="#9facba"/></g><g><path d="m447.506 254.172h-64.783c-1.657 0-3-1.343-3-3v-19.638c0-1.657 1.343-3 3-3h64.783c1.657 0 3 1.343 3 3v19.638c0 1.657-1.343 3-3 3z" fill="#9facba"/></g><g><path d="m221.518 251.172v-19.638c0-1.657 1.343-3 3-3h-31.493c-1.657 0-3 1.343-3 3v19.638c0 1.657 1.343 3 3 3h31.493c-1.657 0-3-1.343-3-3z" fill="#8d9ca8"/></g><g><path d="m316.367 251.172v-19.638c0-1.657 1.343-3 3-3h-31.493c-1.657 0-3 1.343-3 3v19.638c0 1.657 1.343 3 3 3h31.493c-1.657 0-3-1.343-3-3z" fill="#8d9ca8"/></g><g><path d="m411.216 251.172v-19.638c0-1.657 1.343-3 3-3h-31.493c-1.657 0-3 1.343-3 3v19.638c0 1.657 1.343 3 3 3h31.493c-1.657 0-3-1.343-3-3z" fill="#8d9ca8"/></g></g><g><path d="m508.586 202.718-184.234-119.707c-2.485-1.614-5.688-1.614-8.173 0l-26.391 17.148-80.185-52.101c-2.485-1.614-5.688-1.614-8.173 0l-182.437 118.539c-3.473 2.257-4.459 6.902-2.203 10.375 2.257 3.473 6.902 4.459 10.375 2.203l9.824-6.383v155.6h-26.489c-5.79 0-10.5 4.71-10.5 10.5v115.76c0 5.79 4.71 10.5 10.5 10.5h467.378c6.893 0 12.5-5.607 12.5-12.5v-35.652c0-4.142-3.358-7.5-7.5-7.5s-7.5 3.358-7.5 7.5v33.152h-17.372v-138.875c0-5.79-4.71-10.5-10.5-10.5h-254.481c-5.79 0-10.5 4.71-10.5 10.5v138.875h-17.372v-251.123l155.113-100.785 155.112 100.785v182.971c0 4.142 3.358 7.5 7.5 7.5s7.5-3.358 7.5-7.5v-173.224l10.035 6.52c1.262.82 2.679 1.212 4.08 1.212 2.454 0 4.859-1.203 6.296-3.415 2.256-3.474 1.27-8.119-2.203-10.375zm-180.82 113.059h115.24v12.13h-115.24zm0 28.13h115.24v13.13h-115.24zm0 28.129h115.24v78.116h-115.24zm-130.241-56.259h115.241v12.13h-115.241zm0 56.259h47.474c4.142 0 7.5-3.358 7.5-7.5s-3.358-7.5-7.5-7.5h-47.474v-13.13h115.241v13.13h-32.767c-4.142 0-7.5 3.358-7.5 7.5s3.358 7.5 7.5 7.5h32.767v78.116h-115.241zm-136.507 78.117h-46.018v-45.88h46.018zm0-60.881h-46.018v-45.88h46.018zm70.927-186.554c-3.473 2.257-4.459 6.902-2.203 10.375 2.257 3.473 6.903 4.459 10.375 2.203l10.035-6.52v241.377h-13.117v-5.153c0-4.142-3.358-7.5-7.5-7.5s-7.5 3.358-7.5 7.5v5.152h-46.017v-45.88h46.018v5.728c0 4.142 3.358 7.5 7.5 7.5s7.5-3.358 7.5-7.5v-10.228c0-5.79-4.71-10.5-10.5-10.5h-50.518v-50.38c0-5.79-4.71-10.5-10.5-10.5h-13.529v-165.346l153.527-99.755 70.506 45.812z"/><path d="m294.532 177.5h51.467c4.142 0 7.5-3.358 7.5-7.5s-3.358-7.5-7.5-7.5h-51.467c-4.142 0-7.5 3.358-7.5 7.5s3.358 7.5 7.5 7.5z"/><path d="m193.025 221.034c-5.79 0-10.5 4.71-10.5 10.5v19.638c0 5.79 4.71 10.5 10.5 10.5h64.783c5.79 0 10.5-4.71 10.5-10.5v-19.638c0-5.79-4.71-10.5-10.5-10.5zm60.283 25.638h-55.783v-10.638h55.783z"/><path d="m277.374 231.534v19.638c0 5.79 4.71 10.5 10.5 10.5h64.783c5.79 0 10.5-4.71 10.5-10.5v-19.638c0-5.79-4.71-10.5-10.5-10.5h-64.783c-5.789 0-10.5 4.711-10.5 10.5zm15 4.5h55.783v10.638h-55.783z"/><path d="m382.723 221.034c-5.79 0-10.5 4.71-10.5 10.5v19.638c0 5.79 4.71 10.5 10.5 10.5h64.783c5.79 0 10.5-4.71 10.5-10.5v-19.638c0-5.79-4.71-10.5-10.5-10.5zm60.283 25.638h-55.783v-10.638h55.783z"/></g></g></svg>