<svg id="Capa_1" enable-background="new 0 0 512 512" height="512" viewBox="0 0 512 512" width="512" xmlns="http://www.w3.org/2000/svg"><g><g><g><g><path d="m256 504.5h-229.113c-2.761 0-5-2.239-5-5v-224.113c0-2.761 2.239-5 5-5h229.113z" fill="#ea9b58"/></g><g><path d="m63.887 499.5v-224.113c0-2.761 2.239-5 5-5h-42c-2.761 0-5 2.239-5 5v224.113c0 2.761 2.239 5 5 5h42c-2.762 0-5-2.238-5-5z" fill="#d88a55"/></g><g><path d="m161.447 331.858h-45.007c-1.657 0-3-1.343-3-3v-58.471h51.008v58.471c-.001 1.657-1.344 3-3.001 3z" fill="#fd4755"/></g><g><path d="m134 328.858v-58.471h-20.561v58.471c0 1.657 1.343 3 3 3h20.561c-1.657 0-3-1.343-3-3z" fill="#fb2b3a"/></g></g><g><g><path d="m485.113 504.5h-229.113v-234.113h229.113c2.761 0 5 2.239 5 5v224.113c0 2.761-2.238 5-5 5z" fill="#faea5e"/></g><g><path d="m256 270.387h42.887v234.113h-42.887z" fill="#ffd600"/></g><g><path d="m395.561 331.858h-45.008c-1.657 0-3-1.343-3-3v-58.471h51.008v58.471c0 1.657-1.344 3-3 3z" fill="#fd4755"/></g><g><path d="m368 328.858v-58.471h-20.447v58.471c0 1.657 1.343 3 3 3h20.447c-1.657 0-3-1.343-3-3z" fill="#fb2b3a"/></g></g></g><g><g><path d="m301.122 75.281v26.389h45.776v-69.55c0-2.761-2.239-5-5-5h-64.55c-2.761 0-5 2.239-5 5v38.161h23.774c2.762 0 5 2.239 5 5z" fill="#fd4755"/><g><path d="m296.123 62.781c2.738 0 5.266.896 7.327 2.395v-33.056c0-2.761 2.239-5 5-5h-31.101c-2.761 0-5 2.239-5 5v30.66h23.774z" fill="#fb2b3a"/></g><path d="m296.122 70.281h-56.471v31.389h61.471v-26.389c0-2.761-2.238-5-5-5z" fill="#faea5e"/><path d="m239.651 70.281v31.389h18.349v-26.389c0-2.761 2.239-5 5-5z" fill="#ffd600"/><path d="m239.651 101.67v-49.931c0-2.761-2.239-5-5-5h-64.55c-2.761 0-5 2.239-5 5v49.932h74.55z" fill="#80d261"/><path d="m196.45 101.67v-49.931c0-2.761 2.239-5 5-5h-31.349c-2.761 0-5 2.239-5 5v49.932h31.349z" fill="#68ca44"/></g><g><g><path d="m138.943 101.67h234.113v168.718h-234.113z" fill="#01c0fa"/></g><path d="m138.943 101.67h41.943v168.716h-41.943z" fill="#08a9f1"/><g><path d="m341.008 239.002h-45.008c-1.657 0-3-1.343-3-3v-55.471c0-1.657 1.343-3 3-3h45.008c1.657 0 3 1.343 3 3v55.471c0 1.657-1.343 3-3 3z" fill="#fff"/></g><g><path d="m314 236.002v-55.471c0-1.657 1.343-3 3-3h-21c-1.657 0-3 1.343-3 3v55.471c0 1.657 1.343 3 3 3h21c-1.657 0-3-1.343-3-3z" fill="#f2fbff"/></g></g></g><g><path d="m220.033 471.455c4.142 0 7.5-3.358 7.5-7.5s-3.358-7.5-7.5-7.5h-36.621c-4.142 0-7.5 3.358-7.5 7.5s3.358 7.5 7.5 7.5z"/><path d="m57.854 456.455c-4.142 0-7.5 3.358-7.5 7.5s3.358 7.5 7.5 7.5h11.771c4.142 0 7.5-3.358 7.5-7.5s-3.358-7.5-7.5-7.5z"/><path d="m417.525 456.455c-4.142 0-7.5 3.358-7.5 7.5s3.358 7.5 7.5 7.5h36.621c4.142 0 7.5-3.358 7.5-7.5s-3.358-7.5-7.5-7.5z"/><path d="m291.967 456.455c-4.142 0-7.5 3.358-7.5 7.5s3.358 7.5 7.5 7.5h11.771c4.142 0 7.5-3.358 7.5-7.5s-3.358-7.5-7.5-7.5z"/><path d="m341.008 170.031h-45.008c-5.79 0-10.5 4.71-10.5 10.5v55.471c0 5.79 4.71 10.5 10.5 10.5h45.008c5.79 0 10.5-4.71 10.5-10.5v-55.471c0-5.79-4.711-10.5-10.5-10.5zm-4.5 61.471h-36.008v-46.471h36.008z"/><path d="m186.682 222.344h-11.771c-4.142 0-7.5 3.358-7.5 7.5s3.358 7.5 7.5 7.5h11.771c4.142 0 7.5-3.358 7.5-7.5s-3.358-7.5-7.5-7.5z"/><path d="m490.113 407.202c4.142 0 7.5-3.358 7.5-7.5v-124.315c0-6.893-5.607-12.5-12.5-12.5h-104.556v-159.717l38.66-92.783c1.593-3.824-.215-8.215-4.038-9.808-3.824-1.593-8.215.214-9.808 4.038l-37.314 89.553h-13.658v-16.168c0-4.142-3.358-7.5-7.5-7.5s-7.5 3.358-7.5 7.5v16.168h-30.776v-18.89c0-6.893-5.607-12.5-12.5-12.5h-16.274v-28.16h59.55v8.382c0 4.142 3.358 7.5 7.5 7.5s7.5-3.358 7.5-7.5v-10.882c0-6.893-5.607-12.5-12.5-12.5h-64.55c-6.893 0-12.5 5.607-12.5 12.5v30.661h-17.697v-11.042c0-6.893-5.607-12.5-12.5-12.5h-64.55c-6.893 0-12.5 5.607-12.5 12.5v42.431h-13.658l-37.315-89.553c-1.593-3.823-5.985-5.632-9.808-4.038-3.823 1.593-5.631 5.984-4.038 9.808l38.66 92.783v159.717h-30.443c-4.142 0-7.5 3.358-7.5 7.5s3.358 7.5 7.5 7.5h4.939v50.971c0 5.79 4.71 10.5 10.5 10.5h45.008c5.79 0 10.5-4.71 10.5-10.5v-50.971h76.553v219.113h-219.113v-219.113h36.613c4.142 0 7.5-3.358 7.5-7.5s-3.358-7.5-7.5-7.5h-39.113c-6.893 0-12.5 5.607-12.5 12.5v224.113c0 6.893 5.607 12.5 12.5 12.5h458.227c6.893 0 12.5-5.607 12.5-12.5v-64.798c0-4.142-3.358-7.5-7.5-7.5s-7.5 3.358-7.5 7.5v62.298h-219.114v-219.113h76.553v50.971c0 5.79 4.71 10.5 10.5 10.5h45.008c5.79 0 10.5-4.71 10.5-10.5v-50.971h76.553v121.815c-.001 4.142 3.357 7.5 7.499 7.5zm-242.962-329.421h46.471v16.39h-46.471zm-74.55-23.542h59.55v39.931h-59.55zm-15.654 270.119h-36.008v-46.471h36.008zm-10.504-61.471v-153.717h219.113v153.716h-219.113zm244.618 61.471h-36.008v-46.471h36.008z"/></g></g></svg>